# xmcd
#
# Track frame offsets: 
#        150
#        17384
#        33832
#        48058
#        57372
#        78109
#        86504
#        103148
#        124112
#        140598
#        154523
#
# Disc length: 2282 seconds
#
# Revision: 0
# Processed by: cddbd v1.5.2PL0 Copyright (c) Steve Scherf et al.
# Submitted via: ExactAudioCopyFreeDBPlugin 1.0
#
DISCID=7908e80b
DTITLE=Anthony D Estrada - One Kind Favor
DYEAR=1900
DGENRE=
TTITLE0=Little Boy Blue
TTITLE1=Bloodstains on the Wall
TTITLE2=Escalade Blues
TTITLE3=Mad Man Blues
TTITLE4=Give Me My White Robe
TTITLE5=Don't Lie to Me
TTITLE6=Faded Picture Blues
TTITLE7=Decoration Day
TTITLE8=Sloppy Drunk
TTITLE9=No Shoes
TTITLE10=One Kind Favor
EXTD=
EXTT0=
EXTT1=
EXTT2=
EXTT3=
EXTT4=
EXTT5=
EXTT6=
EXTT7=
EXTT8=
EXTT9=
EXTT10=
PLAYORDER=
